# xmcd CD database file
#
# Track frame offsets:
#	150
#	15133
#	42622
#
# Disc length: 931 seconds
#
# Revision: 3
# Processed by: cddbd v1.5.1PL0 Copyright (c) Steve Scherf et al.
# Submitted via: CDex 1.51
#
DISCID=1803a103
DTITLE=Tiga - Pleasure from the bass
DYEAR=2004
DGENRE=New Age
TTITLE0=Pleasure from the bass (Radio Edit)
TTITLE1=Pleasure from the bass (12 Inch Version)
TTITLE2=Pleasure from the bass (6'04")
EXTD=YEAR: 2004
EXTT0=
EXTT1=
EXTT2=
PLAYORDER=
